<?xml version="1.0" encoding="utf-8"?>
<svg width="150px" height="39px" viewBox="0 0 150 39" version="1.1" xmlns:xlink="http://www.w3.org/1999/xlink" xmlns="http://www.w3.org/2000/svg">
  <desc>Created with Lunacy</desc>
  <defs>
    <rect width="150" height="39" id="artboard_1" />
    <clipPath id="clip_1">
      <use xlink:href="#artboard_1" clip-rule="evenodd" />
    </clipPath>
  </defs>
  <g id="ds_Titl_Andre" clip-path="url(#clip_1)">
    <g id="DS" transform="translate(7 6)">
      <path d="M0 29C8.00813 29 14.5 22.5081 14.5 14.5C14.5 6.49187 8.00813 0 0 0L0 3.95455C5.82409 3.95455 10.5455 8.67591 10.5455 14.5C10.5455 20.3241 5.82409 25.0455 0 25.0455L0 29Z" transform="translate(11.863636 2.3415613E-14)" id="Combined-Shape-Copy-4" fill="#646464" fill-rule="evenodd" stroke="none" />
      <path d="M2.97238 -8.49631e-10L4.24302 3.95455L9.22727 3.95455L9.22727 0.00148858L2.97238 -8.49631e-10ZM9.22727 6.59091L4.09695 6.59091L0 29L6.59091 28.9993L6.59091 29L9.22727 29L9.22727 28.999L6.59091 28.9993L6.59091 25.0455L9.22727 25.0455L9.22727 6.59091Z" id="Combined-Shape" fill="#FF9500" fill-rule="evenodd" stroke="none" />
    </g>
    <path d="M0.882813 10.9922L2.60938 7.21875L7.9375 7.21875L9.66406 10.9922L10.5469 10.9922L5.50781 0L5.03906 0L0 10.9922L0.882813 10.9922ZM26.0031 10.9922L26.0031 1.45313L34.2922 10.9922L34.9953 10.9922L34.9953 0.078125L34.1516 0.078125L34.1516 9.61719L25.8781 0.078125L25.1594 0.078125L25.1594 10.9922L26.0031 10.9922ZM59.0727 9.44922Q57.5609 10.9922 54.7797 10.9922L50.8109 10.9922L50.8109 0.078125L54.6312 0.078125C56.5635 0.078125 58.0388 0.585938 59.057 1.60156C60.0753 2.61719 60.5844 3.92969 60.5844 5.53906Q60.5844 7.90625 59.0727 9.44922ZM76.7984 5.75781L76.7984 10.9922L75.9547 10.9922L75.9547 0.078125L78.7516 0.078125C79.9234 0.078125 80.8193 0.332031 81.4391 0.839844C82.0589 1.34766 82.3688 2.03385 82.3688 2.89844C82.3688 4.15885 81.676 5.04427 80.2906 5.55469Q80.8297 5.8125 81.7438 7.21875L84.2125 10.9922L83.2203 10.9922L81.3141 8C80.6786 7 80.1839 6.3763 79.8297 6.12891C79.4755 5.88151 78.9573 5.75781 78.275 5.75781L76.7984 5.75781ZM104.52 10.2891L104.52 10.9922L98.4422 10.9922L98.4422 0.078125L104.395 0.078125L104.395 0.78125L99.2859 0.78125L99.2859 5.14844L104.262 5.14844L104.262 5.85938L99.2859 5.85938L99.2859 10.2891L104.52 10.2891ZM54.7328 10.2891L51.6547 10.2891L51.6547 0.78125L54.6781 0.78125C56.1521 0.78125 57.3526 1.22396 58.2797 2.10938C59.2068 2.99479 59.6703 4.13802 59.6703 5.53906C59.6703 6.97135 59.2003 8.12109 58.2602 8.98828Q56.85 10.2891 54.7328 10.2891ZM78.6109 5.05469L76.7984 5.05469L76.7984 0.78125L78.5797 0.78125Q79.9703 0.78125 80.7125 1.34375C81.2073 1.71875 81.4547 2.24219 81.4547 2.91406C81.4547 3.59635 81.2112 4.1237 80.7242 4.49609C80.2372 4.86849 79.5328 5.05469 78.6109 5.05469ZM2.92969 6.51563L7.61719 6.51563L5.26563 1.375L2.92969 6.51563Z" transform="translate(39.0625 6.0078125)" id="ANDRE" fill="#646464" fill-rule="evenodd" stroke="none" />
    <path d="M16.3668 13.9356Q19.5857 13.9356 21.7008 11.9663Q23.816 9.99706 23.816 6.99211Q23.816 3.98716 21.7203 1.99358Q19.6246 0 16.4738 0Q13.3229 0 11.2613 1.99358Q9.19963 3.98716 9.19963 7.03101Q9.19963 9.99707 11.2467 11.9663Q13.2938 13.9356 16.3668 13.9356ZM73.636 13.9356C75.7819 13.9356 77.5599 13.2792 78.97 11.9663C80.3801 10.6535 81.0851 8.99541 81.0851 6.99211Q81.0851 3.98716 78.9895 1.99358C77.5923 0.664526 75.8435 0 73.7429 0C71.6424 0 69.9049 0.664526 68.5305 1.99358Q66.4688 3.98716 66.4688 7.03101C66.4688 9.00838 67.1512 10.6535 68.5159 11.9663C69.8806 13.2792 71.5873 13.9356 73.636 13.9356ZM6.56908 12.9145Q5.47505 13.9356 3.72459 13.9356Q1.71156 13.9356 0.0583486 12.7006L0.0583486 10.2305Q1.63376 12.224 3.70514 12.224Q4.61927 12.224 5.22706 11.7135Q5.83486 11.2029 5.83486 10.4347Q5.83486 9.18991 4.0455 8.08128L2.56734 7.18661Q1.1767 6.34055 0.588349 5.51881Q0 4.69706 0 3.62734Q0 2.02275 1.11349 1.0211Q2.22697 0.0194495 4.00661 0.0194495Q5.70844 0.0194495 7.12826 0.972477L7.12826 3.18Q5.65982 1.76991 3.96771 1.76991Q3.01468 1.76991 2.40202 2.21239Q1.78936 2.65486 1.78936 3.34532Q1.78936 3.95798 2.2367 4.49284Q2.68404 5.02771 3.68569 5.61119L5.17358 6.48642Q7.66312 7.96459 7.66312 10.2596Q7.66312 11.8934 6.56908 12.9145ZM104.906 12.9145C104.177 13.5952 103.228 13.9356 102.061 13.9356C100.719 13.9356 99.4974 13.5239 98.3952 12.7006L98.3952 10.2305C99.4455 11.5595 100.661 12.224 102.042 12.224Q102.956 12.224 103.564 11.7135Q104.172 11.2029 104.172 10.4347C104.172 9.60483 103.575 8.82037 102.382 8.08128L100.904 7.18661C99.9771 6.62257 99.3175 6.06664 98.9252 5.51881C98.533 4.97098 98.3369 4.34049 98.3369 3.62734Q98.3369 2.02275 99.4504 1.0211C100.193 0.353333 101.157 0.0194495 102.343 0.0194495C103.478 0.0194495 104.519 0.337125 105.465 0.972477L105.465 3.18C104.486 2.23994 103.433 1.76991 102.305 1.76991Q101.352 1.76991 100.739 2.21239C100.33 2.50737 100.126 2.88502 100.126 3.34532C100.126 3.75376 100.275 4.13627 100.574 4.49284C100.872 4.84942 101.355 5.2222 102.023 5.61119L103.51 6.48642C105.17 7.47187 106 8.7296 106 10.2596C106 11.3488 105.635 12.2338 104.906 12.9145ZM55.5187 13.78L55.5187 1.90606L60.2547 1.90606L60.2547 0.175046L48.9059 0.175046L48.9059 1.90606L53.564 1.90606L53.564 13.78L55.5187 13.78ZM34.2604 13.78L34.2604 12.0101L28.1435 12.0101L28.1435 0.194495L26.1985 0.194495L26.1985 13.78L34.2604 13.78ZM45.755 12.545C44.6788 13.472 43.272 13.9356 41.5345 13.9356Q38.8796 13.9356 37.275 12.5547C36.9509 12.2694 36.677 11.9501 36.4533 11.5968C36.2296 11.2435 36.0449 10.8107 35.899 10.2985C35.7531 9.78636 35.6802 8.98245 35.6802 7.88679L35.6802 0.194495L37.6349 0.194495L37.6349 7.90624C37.6349 9.18342 37.7807 10.0716 38.0725 10.5708C38.3642 11.07 38.8083 11.4704 39.4048 11.7718C40.0012 12.0733 40.7046 12.224 41.515 12.224C42.6691 12.224 43.6091 11.9226 44.3352 11.3196Q44.909 10.8334 45.1618 10.1721Q45.4147 9.51083 45.4147 7.90624L45.4147 0.194495L47.3694 0.194495L47.3694 7.90624C47.3694 8.95003 47.2932 9.73774 47.1408 10.2694C46.9885 10.801 46.8005 11.2435 46.5768 11.5968C46.3531 11.9501 46.0792 12.2662 45.755 12.545ZM64.0571 0.194495L64.0571 13.78L62.1121 13.78L62.1121 0.194495L64.0571 0.194495ZM85.3543 13.78L85.3543 3.32587L94.4372 13.78L96.1099 13.78L96.1099 0.194495L94.2622 0.194495L94.2622 10.7361L85.1015 0.194495L83.5261 0.194495L83.5261 13.78L85.3543 13.78ZM12.72 10.6875Q14.2273 12.1462 16.4932 12.1462Q18.7688 12.1462 20.2907 10.6583Q21.8127 9.17046 21.8127 6.95321Q21.8127 4.79431 20.2907 3.32101Q18.7688 1.84771 16.5516 1.84771Q14.2176 1.84771 12.7151 3.30642Q11.2127 4.76514 11.2127 7.03101Q11.2127 9.22881 12.72 10.6875ZM69.9892 10.6875Q71.4965 12.1462 73.7624 12.1462C75.2794 12.1462 76.5453 11.6503 77.5599 10.6583Q79.0818 9.17046 79.0818 6.95321Q79.0818 4.79431 77.5599 3.32101Q76.038 1.84771 73.8207 1.84771C72.2648 1.84771 70.986 2.33395 69.9843 3.30642C68.9827 4.2789 68.4818 5.52043 68.4818 7.03101C68.4818 8.49621 68.9843 9.71505 69.9892 10.6875Z" transform="translate(38 21)" id="SOLUTIONS" fill="#646464" fill-rule="evenodd" stroke="none" />
  </g>
</svg>